<svg viewBox="0 0 120 120" xmlns="http://www.w3.org/2000/svg">
  <!-- White background -->
  <circle cx="60" cy="60" r="60" fill="white"/>
  
  <!-- Stellenbosch University logo -->
  <g transform="translate(60, 60)">
    <!-- Stylized flowing S shapes -->
    <g fill="#B8860B">
      <!-- Main S shape -->
      <path d="M-25,-30 Q-35,-15 Q-25,0 Q-15,15 Q-25,30 Q-35,15 Q-25,0 Q-15,-15 Q-25,-30" fill="#B8860B"/>
      
      <!-- Center flowing element -->
      <path d="M0,-30 Q-10,-15 Q0,0 Q10,15 Q0,30 Q-10,15 Q0,0 Q10,-15 Q0,-30" fill="#B8860B"/>
      
      <!-- Right S shape -->
      <path d="M25,-30 Q15,-15 Q25,0 Q35,15 Q25,30 Q15,15 Q25,0 Q35,-15 Q25,-30" fill="#B8860B"/>
    </g>
    
    <!-- Connecting flow elements -->
    <g stroke="#B8860B" stroke-width="2" fill="none">
      <path d="M-15,-15 Q0,-8 Q15,-15"/>
      <path d="M-15,15 Q0,8 Q15,15"/>
    </g>
    
    <!-- Central accent -->
    <circle cx="0" cy="0" r="3" fill="#8B1538"/>
  </g>
</svg>
