<svg viewBox="0 0 120 120" xmlns="http://www.w3.org/2000/svg">
  <!-- Orange background circle -->
  <circle cx="60" cy="60" r="60" fill="#FF5722"/>
  
  <!-- Two white birds holding book -->
  <g transform="translate(60, 60)">
    <!-- Left bird -->
    <g transform="translate(-25, 0)">
      <!-- Bird body -->
      <path d="M-8,-15 Q-15,-10 Q-15,5 Q-10,15 Q0,10 Q5,0 Q0,-10 Q-8,-15 Z" fill="white"/>
      <!-- Wing detail -->
      <path d="M-10,-5 Q-18,-2 Q-20,8 Q-15,12 Q-8,8" fill="white"/>
      <!-- Crown/crest -->
      <path d="M-8,-15 L-12,-22 L-8,-18 L-4,-22 L-8,-15" fill="white"/>
      <path d="M-6,-15 L-10,-22 L-6,-18 L-2,-22 L-6,-15" fill="white"/>
    </g>
    
    <!-- Right bird -->
    <g transform="translate(25, 0)">
      <!-- Bird body -->
      <path d="M8,-15 Q15,-10 Q15,5 Q10,15 Q0,10 Q-5,0 Q0,-10 Q8,-15 Z" fill="white"/>
      <!-- Wing detail -->
      <path d="M10,-5 Q18,-2 Q20,8 Q15,12 Q8,8" fill="white"/>
      <!-- Crown/crest -->
      <path d="M8,-15 L12,-22 L8,-18 L4,-22 L8,-15" fill="white"/>
      <path d="M6,-15 L10,-22 L6,-18 L2,-22 L6,-15" fill="white"/>
    </g>
    
    <!-- Book in center -->
    <g transform="translate(0, -5)">
      <!-- Book pages -->
      <rect x="-12" y="-8" width="24" height="12" fill="white" rx="1"/>
      <!-- Book spine/center -->
      <line x1="0" y1="-8" x2="0" y2="4" stroke="#FF5722" stroke-width="1"/>
      <!-- Book rays above -->
      <path d="M0,-8 L-4,-15 L0,-12 L4,-15 Z" fill="white"/>
      <path d="M-2,-15 L-6,-20 L-2,-17 L2,-20 Z" fill="white"/>
      <path d="M2,-15 L6,-20 L2,-17 L-2,-20 Z" fill="white"/>
    </g>
  </g>
</svg>
