<svg viewBox="0 0 200 200" xmlns="http://www.w3.org/2000/svg">
  <!-- Background -->
  <rect width="200" height="200" fill="#8B1593"/>
  
  <!-- UNW logo - simplified interlocking design -->
  <g transform="translate(100, 100)">
    <!-- Main interlocking shapes -->
    <g fill="white">
      <!-- First curved element -->
      <path d="M-40,-20 Q-60,-40 Q-40,-60 Q-20,-40 Q-40,-20 Z" fill="white"/>
      <path d="M-40,-20 Q-20,0 Q0,-20 Q-20,-40 Q-40,-20 Z" fill="white"/>
      
      <!-- Second curved element -->
      <path d="M40,-20 Q60,-40 Q40,-60 Q20,-40 Q40,-20 Z" fill="white"/>
      <path d="M40,-20 Q20,0 Q0,-20 Q20,-40 Q40,-20 Z" fill="white"/>
      
      <!-- Bottom connecting element -->
      <path d="M-30,20 Q0,40 Q30,20 Q0,0 Q-30,20 Z" fill="white"/>
      
      <!-- Central connecting piece -->
      <circle cx="0" cy="-20" r="15" fill="white"/>
      <circle cx="0" cy="-20" r="8" fill="#8B1593"/>
    </g>
  </g>
</svg>
