<svg viewBox="0 0 120 120" xmlns="http://www.w3.org/2000/svg">
  <!-- White background -->
  <circle cx="60" cy="60" r="60" fill="white"/>
  
  <!-- Wits shield -->
  <g transform="translate(60, 60)">
    <!-- Main shield -->
    <path d="M0,-45 L25,-35 L35,-10 L35,25 Q35,35 25,40 L0,45 L-25,40 Q-35,35 -35,25 L-35,-10 L-25,-35 Z" fill="white" stroke="#1E40AF" stroke-width="2"/>
    
    <!-- Book and anchor at top -->
    <g transform="translate(0, -25)">
      <!-- Open book -->
      <rect x="-8" y="-6" width="16" height="8" fill="#B8860B" rx="1"/>
      <line x1="0" y1="-6" x2="0" y2="2" stroke="white" stroke-width="1"/>
      
      <!-- Anchor below -->
      <g transform="translate(0, 12)">
        <circle cx="0" cy="-3" r="4" fill="#B8860B"/>
        <rect x="-1" y="1" width="2" height="8" fill="#B8860B"/>
        <path d="M-5,8 L-3,6 L3,6 L5,8" stroke="#B8860B" stroke-width="2" fill="none"/>
      </g>
    </g>
    
    <!-- Red section with bees -->
    <rect x="-30" y="-8" width="60" height="16" fill="#DC2626"/>
    <g fill="#B8860B">
      <!-- Three bees simplified -->
      <g transform="translate(-15, 0)">
        <ellipse cx="0" cy="0" rx="2" ry="3" fill="#B8860B"/>
        <circle cx="0" cy="-1" r="1" fill="black"/>
      </g>
      <g transform="translate(0, 0)">
        <ellipse cx="0" cy="0" rx="2" ry="3" fill="#B8860B"/>
        <circle cx="0" cy="-1" r="1" fill="black"/>
      </g>
      <g transform="translate(15, 0)">
        <ellipse cx="0" cy="0" rx="2" ry="3" fill="#B8860B"/>
        <circle cx="0" cy="-1" r="1" fill="black"/>
      </g>
    </g>
    
    <!-- Three circles on right -->
    <g transform="translate(20, 0)">
      <circle cx="0" cy="-5" r="2" fill="#B8860B"/>
      <circle cx="0" cy="0" r="2" fill="#B8860B"/>
      <circle cx="0" cy="5" r="2" fill="#B8860B"/>
    </g>
    
    <!-- Gold chevron -->
    <path d="M-30,8 L0,35 L30,8 L20,15 L0,25 L-20,15 Z" fill="#B8860B"/>
    
    <!-- Blue bottom with mining cart -->
    <rect x="-30" y="25" width="60" height="15" fill="#1E40AF"/>
    <g transform="translate(0, 32)" fill="#B8860B">
      <!-- Mining cart simplified -->
      <rect x="-8" y="-2" width="16" height="4" fill="#B8860B"/>
      <circle cx="-5" cy="3" r="2" fill="#B8860B"/>
      <circle cx="5" cy="3" r="2" fill="#B8860B"/>
    </g>
  </g>
</svg>
