<svg viewBox="0 0 120 120" xmlns="http://www.w3.org/2000/svg">
  <!-- White background -->
  <circle cx="60" cy="60" r="60" fill="white"/>
  
  <!-- University of Venda emblem -->
  <g transform="translate(60, 60)">
    <!-- Main shield shape -->
    <path d="M0,-40 L30,-25 L35,0 L30,25 L0,40 L-30,25 L-35,0 L-30,-25 Z" fill="#1E40AF" stroke="#DC2626" stroke-width="2"/>
    
    <!-- Crown/rays at top -->
    <g transform="translate(0, -40)">
      <path d="M-20,-12 L-12,-20 L-6,-15 L0,-20 L6,-15 L12,-20 L20,-12 L12,-6 L-12,-6 Z" fill="#B8860B"/>
      <!-- Center diamond -->
      <path d="M-5,-10 L0,-15 L5,-10 L0,-5 Z" fill="#DC2626"/>
      <!-- Small gear/cog -->
      <circle cx="0" cy="-10" r="5" fill="#DC2626"/>
      <circle cx="0" cy="-10" r="2" fill="white"/>
    </g>
    
    <!-- Traditional pot in center -->
    <g transform="translate(0, -5)">
      <!-- Pot body -->
      <ellipse cx="0" cy="0" rx="15" ry="10" fill="#8B4513"/>
      <!-- Pot rim -->
      <ellipse cx="0" cy="-10" rx="18" ry="5" fill="#A0522D"/>
      <!-- Decorative pattern -->
      <path d="M-12,-3 Q0,2 12,-3 M-9,3 Q0,8 9,3" stroke="#DC2626" stroke-width="1.5" fill="none"/>
    </g>
    
    <!-- Curved elements on sides -->
    <g transform="translate(-18, 0)">
      <path d="M0,-12 Q-8,-6 Q-8,6 Q0,12" stroke="#DC2626" stroke-width="3" fill="none"/>
    </g>
    <g transform="translate(18, 0)">
      <path d="M0,-12 Q8,-6 Q8,6 Q0,12" stroke="#DC2626" stroke-width="3" fill="none"/>
    </g>
    
    <!-- Blue dot at bottom -->
    <circle cx="0" cy="25" r="5" fill="#1E40AF"/>
  </g>
</svg>
