<svg viewBox="0 0 120 120" xmlns="http://www.w3.org/2000/svg">
  <!-- Blue background -->
  <circle cx="60" cy="60" r="60" fill="#1E40AF"/>
  
  <!-- Main shield -->
  <g transform="translate(60, 60)">
    <!-- Eagle at top -->
    <g transform="translate(0, -25)">
      <!-- Eagle body -->
      <ellipse cx="0" cy="0" rx="8" ry="12" fill="#8B1538"/>
      <!-- Eagle head -->
      <circle cx="0" cy="-8" r="5" fill="white"/>
      <!-- Eagle beak -->
      <path d="M-5,-8 L-8,-10 L-5,-6 Z" fill="#F59E0B"/>
      <!-- Eagle eye -->
      <circle cx="-2" cy="-8" r="1" fill="black"/>
      <!-- Wings -->
      <path d="M-8,-5 Q-15,-2 Q-18,2 Q-15,5 Q-8,2 Z" fill="#6B7280"/>
      <path d="M8,-5 Q15,-2 Q18,2 Q15,5 Q8,2 Z" fill="#6B7280"/>
    </g>
    
    <!-- Crown/helmet -->
    <g transform="translate(0, -10)">
      <path d="M-12,-3 Q-12,-8 0,-8 Q12,-8 12,-3 L8,5 L-8,5 Z" fill="black"/>
      <!-- Red heart -->
      <path d="M-3,-3 Q-3,-6 0,-6 Q3,-6 3,-3 Q3,0 0,3 Q-3,0 -3,-3 Z" fill="#DC2626"/>
    </g>
    
    <!-- Shield body -->
    <path d="M-25,0 L25,0 L25,15 Q25,25 15,30 L0,35 L-15,30 Q-25,25 -25,15 Z" fill="white"/>
    
    <!-- Blue upper section -->
    <rect x="-22" y="2" width="44" height="12" fill="#1E40AF"/>
    
    <!-- White triangle -->
    <path d="M-18,14 L18,14 L0,28 Z" fill="white"/>
    
    <!-- Yellow circle with Y -->
    <g transform="translate(0, 22)">
      <circle cx="0" cy="0" r="8" fill="#F59E0B"/>
      <path d="M-4,-4 L0,0 L4,-4 M0,0 L0,4" stroke="black" stroke-width="2" fill="none"/>
    </g>
  </g>
</svg>
